<svg width="115" height="21" viewBox="0 0 115 21" fill="none" xmlns="http://www.w3.org/2000/svg">
<g id="Group 1">
<g id="network">
<path d="M37.286 19.7534V12.284C37.286 11.3132 36.9804 10.5132 36.3692 9.88403C35.758 9.25484 34.967 8.94024 33.9962 8.94024C33.3491 8.94024 32.7738 9.08405 32.2704 9.37169C31.7671 9.65932 31.3716 10.0548 31.0839 10.5582C30.7963 11.0615 30.6525 11.6368 30.6525 12.284L29.6548 11.7177C29.6548 10.7469 29.8705 9.88403 30.3019 9.129C30.7334 8.37396 31.3356 7.78072 32.1086 7.34927C32.8817 6.89984 33.7535 6.67513 34.7243 6.67513C35.6951 6.67513 36.549 6.91782 37.286 7.4032C38.0411 7.88858 38.6343 8.52676 39.0658 9.31776C39.4972 10.0908 39.7129 10.9177 39.7129 11.7986V19.7534H37.286ZM28.2256 19.7534V6.94478H30.6525V19.7534H28.2256Z" fill="white"/>
<path d="M47.3132 20.0231C46.0369 20.0231 44.8863 19.7355 43.8616 19.1602C42.837 18.567 42.028 17.767 41.4347 16.7603C40.8415 15.7535 40.5449 14.612 40.5449 13.3356C40.5449 12.0772 40.8325 10.9447 41.4078 9.93797C42.001 8.93125 42.792 8.14026 43.7808 7.56499C44.7875 6.97175 45.911 6.67513 47.1515 6.67513C48.3379 6.67513 49.3806 6.94478 50.2795 7.48409C51.1963 8.02341 51.9064 8.76946 52.4098 9.72224C52.9311 10.675 53.1918 11.7537 53.1918 12.9581C53.1918 13.1379 53.1828 13.3356 53.1648 13.5514C53.1468 13.7491 53.1109 13.9828 53.0569 14.2525H42.2437V12.23H51.7626L50.8727 13.012C50.8727 12.1491 50.7199 11.4211 50.4143 10.8278C50.1087 10.2166 49.6772 9.74921 49.1199 9.42562C48.5627 9.08405 47.8885 8.91327 47.0975 8.91327C46.2706 8.91327 45.5425 9.09304 44.9133 9.45258C44.2841 9.81213 43.7987 10.3155 43.4572 10.9627C43.1156 11.6098 42.9448 12.3739 42.9448 13.2547C42.9448 14.1536 43.1246 14.9446 43.4841 15.6277C43.8437 16.2929 44.356 16.8142 45.0212 17.1917C45.6863 17.5513 46.4503 17.731 47.3132 17.731C48.0323 17.731 48.6885 17.6052 49.2817 17.3535C49.893 17.1018 50.4143 16.7243 50.8457 16.221L52.4098 17.8119C51.7985 18.531 51.0435 19.0793 50.1446 19.4568C49.2638 19.8343 48.32 20.0231 47.3132 20.0231Z" fill="white"/>
<path d="M55.7935 19.7534V1.57863H58.2204V19.7534H55.7935ZM52.6385 9.15596V6.94478H61.3754V9.15596H52.6385Z" fill="white"/>
<path d="M65.8022 19.7534L60.7326 6.94478H63.2674L66.9347 16.9221H66.1258L69.7661 6.94478H71.1684L74.8087 16.9221H73.9997L77.6671 6.94478H80.2018L75.1593 19.7534H73.7301L70.0358 10.0728H70.9257L67.2044 19.7534H65.8022Z" fill="white"/>
<path d="M86.224 20.0231C84.9656 20.0231 83.8331 19.7265 82.8263 19.1332C81.8196 18.54 81.0197 17.74 80.4264 16.7333C79.8332 15.7086 79.5365 14.5671 79.5365 13.3087C79.5365 12.0682 79.8332 10.9537 80.4264 9.96493C81.0197 8.95821 81.8196 8.15823 82.8263 7.56499C83.8331 6.97175 84.9656 6.67513 86.224 6.67513C87.4644 6.67513 88.588 6.97175 89.5947 7.56499C90.6194 8.14026 91.4284 8.93125 92.0216 9.93797C92.6149 10.9447 92.9115 12.0682 92.9115 13.3087C92.9115 14.5671 92.6149 15.7086 92.0216 16.7333C91.4284 17.74 90.6194 18.54 89.5947 19.1332C88.588 19.7265 87.4644 20.0231 86.224 20.0231ZM86.224 17.6771C87.033 17.6771 87.7521 17.4883 88.3813 17.1108C89.0105 16.7333 89.5048 16.221 89.8644 15.5738C90.2239 14.9086 90.4037 14.1536 90.4037 13.3087C90.4037 12.4817 90.2149 11.7447 89.8374 11.0975C89.4779 10.4503 88.9835 9.94695 88.3543 9.58741C87.7431 9.20989 87.033 9.02113 86.224 9.02113C85.415 9.02113 84.696 9.20989 84.0668 9.58741C83.4376 9.94695 82.9432 10.4503 82.5837 11.0975C82.2241 11.7447 82.0443 12.4817 82.0443 13.3087C82.0443 14.1536 82.2241 14.9086 82.5837 15.5738C82.9432 16.221 83.4376 16.7333 84.0668 17.1108C84.696 17.4883 85.415 17.6771 86.224 17.6771Z" fill="white"/>
<path d="M94.028 19.7534V6.94478H96.4549V19.7534H94.028ZM96.4549 12.4458L95.5381 12.0413C95.5381 10.4054 95.9156 9.10203 96.6707 8.13127C97.4257 7.16051 98.5133 6.67513 99.9335 6.67513C100.581 6.67513 101.165 6.79198 101.686 7.02568C102.208 7.2414 102.693 7.60993 103.142 8.13127L101.551 9.77617C101.282 9.48854 100.985 9.2818 100.662 9.15596C100.338 9.03012 99.9605 8.9672 99.529 8.9672C98.6302 8.9672 97.8931 9.25484 97.3178 9.8301C96.7426 10.4054 96.4549 11.2773 96.4549 12.4458Z" fill="white"/>
<path d="M111.431 19.7534L105.444 13.2008L111.377 6.94478H114.316L107.71 13.848L107.817 12.4458L114.559 19.7534H111.431ZM103.233 19.7534V0.5H105.66V19.7534H103.233Z" fill="white"/>
</g>
<g id="Logo">
<path id="Ellipse 3 (Stroke)" fill-rule="evenodd" clip-rule="evenodd" d="M11.564 11.6619C11.9746 11.6619 12.3074 11.3291 12.3074 10.9186C12.3074 10.508 11.9746 10.1752 11.564 10.1752C11.1534 10.1752 10.8206 10.508 10.8206 10.9186C10.8206 11.3291 11.1534 11.6619 11.564 11.6619ZM11.564 12.4879C12.4307 12.4879 13.1334 11.7853 13.1334 10.9186C13.1334 10.0518 12.4307 9.34918 11.564 9.34918C10.6973 9.34918 9.99463 10.0518 9.99463 10.9186C9.99463 11.7853 10.6973 12.4879 11.564 12.4879Z" fill="white"/>
<path id="Ellipse 4 (Stroke)" fill-rule="evenodd" clip-rule="evenodd" d="M9.00296 15.8746C9.41353 15.8746 9.74635 15.5417 9.74635 15.1312C9.74635 14.7206 9.41353 14.3878 9.00296 14.3878C8.5924 14.3878 8.25958 14.7206 8.25958 15.1312C8.25958 15.5417 8.5924 15.8746 9.00296 15.8746ZM9.00296 16.7005C9.8697 16.7005 10.5723 15.9979 10.5723 15.1312C10.5723 14.2644 9.8697 13.5618 9.00296 13.5618C8.13623 13.5618 7.43359 14.2644 7.43359 15.1312C7.43359 15.9979 8.13623 16.7005 9.00296 16.7005Z" fill="white"/>
<path id="Line 4 (Stroke)" fill-rule="evenodd" clip-rule="evenodd" d="M18.0888 10.1751L20.7319 10.1751L20.7319 11.6619L18.0888 11.6619L18.0888 10.1751Z" fill="white"/>
<path id="Line 5 (Stroke)" fill-rule="evenodd" clip-rule="evenodd" d="M-8.52239e-05 14.553L2.64307 14.553L2.64307 16.0397L-8.53539e-05 16.0397L-8.52239e-05 14.553Z" fill="white"/>
<path id="Vector 7 (Stroke)" fill-rule="evenodd" clip-rule="evenodd" d="M13.0503 19.0133L13.0503 17.0335L14.5371 17.0335L14.5371 19.5915C14.5371 20.0933 14.1303 20.5001 13.6285 20.5001L2.89072 20.5001C2.38893 20.5001 1.98214 20.0933 1.98214 19.5915L1.98214 11.1664C1.98214 10.6646 2.38893 10.2578 2.89072 10.2578L10.3393 10.2578L10.3393 11.7446L3.46891 11.7446L3.46891 19.0133L13.0503 19.0133Z" fill="white"/>
<path id="Vector 8 (Stroke)" fill-rule="evenodd" clip-rule="evenodd" d="M7.59908 6.95382L7.59908 8.98496L6.11231 8.98496L6.11231 6.37563C6.11231 5.87383 6.51909 5.46704 7.02089 5.46704L17.5935 5.46705C18.0953 5.46705 18.5021 5.87383 18.5021 6.37563L18.5021 14.9659C18.5021 15.4677 18.0953 15.8745 17.5935 15.8745L10.2585 15.8745L10.2585 14.3877L17.0153 14.3877L17.0153 6.95382L7.59908 6.95382Z" fill="white"/>
</g>
</g>
</svg>
