<?xml version="1.0" encoding="UTF-8"?>
<svg version="1.1" xmlns="http://www.w3.org/2000/svg" width="398" height="100">
<path d="M0 0 C7.20860811 -0.06879902 14.41608124 -0.12855586 21.62475586 -0.16479492 C24.07792008 -0.17989881 26.53105724 -0.20038321 28.98413086 -0.22631836 C32.50641555 -0.26263057 36.02834381 -0.27971036 39.55078125 -0.29296875 C40.65086014 -0.30845261 41.75093903 -0.32393646 42.88435364 -0.33988953 C44.41560127 -0.34022942 44.41560127 -0.34022942 45.9777832 -0.34057617 C46.87713089 -0.34723801 47.77647858 -0.35389984 48.70307922 -0.36076355 C51.47483838 0.07458001 52.35795576 0.75715118 54 3 C54.34057617 5.72729492 54.34057617 5.72729492 54.29296875 8.98046875 C54.2784668 10.72553711 54.2784668 10.72553711 54.26367188 12.50585938 C54.23853516 13.72080078 54.21339844 14.93574219 54.1875 16.1875 C54.16719727 18.02731445 54.16719727 18.02731445 54.14648438 19.90429688 C54.11109036 22.9363845 54.05728295 25.96824691 54 29 C49.71 29 45.42 29 41 29 C41 22.4 41 15.8 41 9 C38.69 9 36.38 9 34 9 C34 15.6 34 22.2 34 29 C29.71 29 25.42 29 21 29 C20.505 19.595 20.505 19.595 20 10 C17.69 9.67 15.38 9.34 13 9 C13 15.6 13 22.2 13 29 C8.71 29 4.42 29 0 29 C0 19.43 0 9.86 0 0 Z " fill="#000000" transform="translate(115,41)"/>
<path d="M0 0 C4.29 0 8.58 0 13 0 C13.06058594 1.85367188 13.12117188 3.70734375 13.18359375 5.6171875 C13.26798721 8.03646679 13.35263581 10.45573718 13.4375 12.875 C13.47681641 14.09832031 13.51613281 15.32164063 13.55664062 16.58203125 C13.61948242 18.33193359 13.61948242 18.33193359 13.68359375 20.1171875 C13.72025146 21.19597168 13.75690918 22.27475586 13.79467773 23.38623047 C13.83376643 25.98069536 13.83376643 25.98069536 15 28 C20.14369056 29.71456352 24.83760714 29.29059821 30 28 C30.33 18.76 30.66 9.52 31 0 C35.62 0 40.24 0 45 0 C45.06922608 4.00229288 45.12884797 8.00304204 45.16479492 12.00561523 C45.17979409 13.36441117 45.20020038 14.72315941 45.22631836 16.08178711 C45.49564933 30.46194881 45.49564933 30.46194881 42 36 C38.5595283 39.39071904 35.72546143 39.38561465 31.00390625 39.3984375 C29.9980674 39.40274277 29.9980674 39.40274277 28.97190857 39.40713501 C27.55735426 39.40917121 26.14277151 39.4036723 24.72827148 39.39111328 C22.5727581 39.37507632 20.41912659 39.39096165 18.26367188 39.41015625 C16.88541256 39.40817324 15.5071544 39.40432838 14.12890625 39.3984375 C12.88181885 39.39505371 11.63473145 39.39166992 10.34985352 39.38818359 C6.71075588 38.96648217 4.85833953 38.26246523 2 36 C-0.6282449 32.51212261 -0.22894982 28.84767722 -0.1953125 24.609375 C-0.1924826 23.90476135 -0.18965271 23.20014771 -0.18673706 22.47418213 C-0.17557801 20.2326124 -0.15048193 17.99144814 -0.125 15.75 C-0.11496464 14.22656829 -0.10583976 12.70313029 -0.09765625 11.1796875 C-0.07565291 7.45299414 -0.04115272 3.72653667 0 0 Z " fill="#000000" transform="translate(64,32)"/>
<path d="M0 0 C4.29 0 8.58 0 13 0 C13 3.96 13 7.92 13 12 C14.54171875 11.94199219 16.0834375 11.88398437 17.671875 11.82421875 C19.69788642 11.77732034 21.72393054 11.73182027 23.75 11.6875 C24.76578125 11.64560547 25.7815625 11.60371094 26.828125 11.56054688 C34.23263881 11.43876211 34.23263881 11.43876211 37.67578125 13.95703125 C39.47038707 18.08091895 39.54947389 21.54994082 39.4375 26 C39.44458984 26.7940625 39.45167969 27.588125 39.45898438 28.40625 C39.40850698 33.06570214 39.01485234 36.22590612 36 40 C32.93386053 41.53306974 29.72919216 41.12141666 26.3671875 41.09765625 C25.36764038 41.09614563 25.36764038 41.09614563 24.34790039 41.09460449 C21.85691611 41.08936955 19.36595634 41.07540829 16.875 41.0625 C8.521875 41.0315625 8.521875 41.0315625 0 41 C0 27.47 0 13.94 0 0 Z M13 21 C13 24.63 13 28.26 13 32 C17.29 32 21.58 32 26 32 C26 28.37 26 24.74 26 21 C21.71 21 17.42 21 13 21 Z " fill="#000000" transform="translate(175,29)"/>
<path d="M0 0 C1.22332031 -0.01933594 2.44664062 -0.03867187 3.70703125 -0.05859375 C12.50028233 -0.0105432 12.50028233 -0.0105432 16.82421875 2.73828125 C19.83878942 7.93121302 18.79719642 12.7405108 18.5 18.625 C10.58 18.625 2.66 18.625 -5.5 18.625 C-5.5 19.285 -5.5 19.945 -5.5 20.625 C-4.88479492 20.59881592 -4.26958984 20.57263184 -3.63574219 20.5456543 C-0.84075592 20.44154079 1.95382258 20.37663251 4.75 20.3125 C5.71808594 20.27060547 6.68617188 20.22871094 7.68359375 20.18554688 C14.85484548 20.0619046 14.85484548 20.0619046 18.171875 22.95703125 C19.5 25.625 19.5 25.625 19.5 28.625 C14.99913788 30.87543106 8.90110694 29.93487324 3.89697266 29.97509766 C2.38574834 29.99166169 0.87460252 30.01895843 -0.63623047 30.05712891 C-2.81779493 30.11194208 -4.99752695 30.13377358 -7.1796875 30.1484375 C-8.48663574 30.16825684 -9.79358398 30.18807617 -11.14013672 30.20849609 C-14.5 29.625 -14.5 29.625 -16.92211914 27.37158203 C-19.3046132 23.22442774 -19.12346741 19.80873145 -19.0625 15.125 C-19.08634766 14.28324219 -19.11019531 13.44148438 -19.13476562 12.57421875 C-19.12529374 8.56445468 -18.77375274 6.11939871 -16.80859375 2.5703125 C-11.45436353 -0.5777473 -6.09013861 -0.09626141 0 0 Z M-5.5 9.625 C-5.5 10.615 -5.5 11.605 -5.5 12.625 C-1.87 12.625 1.76 12.625 5.5 12.625 C5.5 11.635 5.5 10.645 5.5 9.625 C1.87 9.625 -1.76 9.625 -5.5 9.625 Z " fill="#000000" transform="translate(295.5,40.375)"/>
<path d="M0 0 C1.625 0.828125 1.625 0.828125 3.875 2.328125 C2.885 5.298125 1.895 8.268125 0.875 11.328125 C-1.88776177 10.80544034 -4.4510876 10.21942913 -7.125 9.328125 C-9.765 9.328125 -12.405 9.328125 -15.125 9.328125 C-15.455 15.928125 -15.785 22.528125 -16.125 29.328125 C-20.415 29.328125 -24.705 29.328125 -29.125 29.328125 C-29.125 19.758125 -29.125 10.188125 -29.125 0.328125 C-24.835 0.328125 -20.545 0.328125 -16.125 0.328125 C-11.66129461 -1.90372769 -4.69137829 -1.48330343 0 0 Z " fill="#000000" transform="translate(249.125,40.671875)"/>
<path d="M0 0 C4.62 0 9.24 0 14 0 C14 13.53 14 27.06 14 41 C9.71 41 5.42 41 1 41 C0.67 27.47 0.34 13.94 0 0 Z " fill="#000000" transform="translate(320,29)"/>
<path d="M0 0 C4.29 0 8.58 0 13 0 C13 9.57 13 19.14 13 29 C8.71 29 4.42 29 0 29 C0 19.43 0 9.86 0 0 Z " fill="#000000" transform="translate(257,41)"/>
<path d="M0 0 C0.91007812 0.00902344 1.82015625 0.01804687 2.7578125 0.02734375 C3.45648438 0.03894531 4.15515625 0.05054687 4.875 0.0625 C6.90625 3.734375 6.90625 3.734375 6.625 6.6875 C5.875 9.0625 5.875 9.0625 3.875 11.0625 C0.83541926 11.55852266 -2.08027064 11.50779863 -5.125 11.0625 C-7.25 9.4375 -7.25 9.4375 -8.125 7.0625 C-7.9375 3.875 -7.9375 3.875 -7.125 1.0625 C-4.60024538 -0.19987731 -2.81299534 -0.03606404 0 0 Z " fill="#000000" transform="translate(264.125,26.9375)"/>
</svg>
